<?xml version="1.0" encoding="utf-8"?>
<!-- Generator: Adobe Illustrator 23.0.0, SVG Export Plug-In . SVG Version: 6.00 Build 0)  -->
<svg version="1.1" id="Layer_1" xmlns="http://www.w3.org/2000/svg" xmlns:xlink="http://www.w3.org/1999/xlink" x="0px" y="0px"
	 viewBox="0 0 1897 422" style="enable-background:new 0 0 1897 422;" xml:space="preserve">
<style type="text/css">
	.st0{clip-path:url(#SVGID_2_);}
	.st1{fill:#FFFFFF;}
	.st2{opacity:0.15;fill:#929497;}
	.st3{fill:none;}
</style>
<g>
	<defs>
		<rect id="SVGID_1_" width="1897" height="422"/>
	</defs>
	<clipPath id="SVGID_2_">
		<use xlink:href="#SVGID_1_"  style="overflow:visible;"/>
	</clipPath>
	<g class="st0">
		<path class="st1" d="M1902.5,422V209.8c-87.7,20-169.5,44.5-351.9,56.1C893,307.5,726.4,129.5,201.1,161.8
			c-68.9,4.2-136.6,23.6-206.6,48V422H1902.5z"/>
		<path class="st2" d="M-11.5,378.6c0,0,373.3-223.5,863.5-140.7s790.6,225.9,1059.6,159.9V175L277.8,95l-292.3,79.8L-11.5,378.6z"
			/>
		<path class="st2" d="M1908.5,305.6c0,0-373.3-223.5-863.5-140.7S254.4,390.8-14.5,324.7V102l1633.7-80l292.3,79.8L1908.5,305.6z"
			/>
		<rect x="-5.5" class="st3" width="1908" height="422"/>
	</g>
</g>
</svg>
